<svg width="48" height="28" viewBox="0 0 48 28" fill="none" xmlns="http://www.w3.org/2000/svg">
<path d="M0 2C0 0.895431 0.895431 0 2 0H46C47.1046 0 48 0.895431 48 2V28H0V2Z" fill="#5A5A66"/>
<path d="M30.4766 13.8315C30.3152 13.8986 30.3607 14.0572 30.4766 14.1228C31.49 14.6612 31.88 15.3994 31.88 16.4747V18.671C31.88 20.4402 30.6379 21 29.4866 21H16.1211V7H19.5482V17.2358C19.5482 17.4615 19.6641 17.5713 19.8944 17.5713H27.9689C28.1991 17.5713 28.337 17.4157 28.337 17.2358V15.9607C28.337 15.7822 28.1772 15.6022 27.9689 15.6022H21.4357V12.1507H27.9689C28.2226 12.1507 28.337 11.9936 28.337 11.7922V10.6956C28.337 10.4928 28.1537 10.3372 27.9689 10.3372H21.4357V7H29.4866C31.4195 7 31.88 8.16374 31.88 9.33054V11.4582C31.88 13.3632 30.6379 13.7659 30.4766 13.833V13.8315Z" fill="#EAEAEB"/>
</svg>
