<svg width="132" height="132" viewBox="0 0 132 132" fill="none" xmlns="http://www.w3.org/2000/svg">
<path d="M27.7937 76.9167H99.4929C105.021 76.9167 107.785 76.9167 109.986 75.886C111.924 74.978 113.553 73.5202 114.67 71.6939C115.937 69.6207 116.242 66.8734 116.853 61.3789L120.046 32.6406C120.232 30.9623 120.326 30.1232 120.056 29.4737C119.819 28.9033 119.395 28.4302 118.854 28.1316C118.239 27.7917 117.394 27.7917 115.706 27.7917H25.0646M11.418 11.4167H18.2324C19.6768 11.4167 20.399 11.4167 20.964 11.6914C21.4614 11.9332 21.8736 12.3204 22.146 12.8018C22.4554 13.3486 22.5004 14.0694 22.5905 15.511L27.5371 94.6557C27.6272 96.0973 27.6722 96.8181 27.9816 97.3649C28.254 97.8463 28.6662 98.2335 29.1636 98.4753C29.7286 98.75 30.4508 98.75 31.8952 98.75H104.21M41.4388 117.854H41.4934M90.5638 117.854H90.6184M44.168 117.854C44.168 119.361 42.9461 120.583 41.4388 120.583C39.9315 120.583 38.7096 119.361 38.7096 117.854C38.7096 116.347 39.9315 115.125 41.4388 115.125C42.9461 115.125 44.168 116.347 44.168 117.854ZM93.293 117.854C93.293 119.361 92.0711 120.583 90.5638 120.583C89.0565 120.583 87.8346 119.361 87.8346 117.854C87.8346 116.347 89.0565 115.125 90.5638 115.125C92.0711 115.125 93.293 116.347 93.293 117.854Z" stroke="black" stroke-width="4" stroke-linecap="round" stroke-linejoin="round"/>
</svg>
