<svg width="27" height="27" viewBox="0 0 27 27" fill="none" xmlns="http://www.w3.org/2000/svg">
<path d="M17.6711 6.1H21.3167V9.23335H18.0833C17.3197 9.23335 16.7333 9.81977 16.7333 10.5833V13.5V13.6H16.8333H20.9V16.7333H16.8333H16.7333V16.8333V25.0667L13.6 25.0667V16.8333V16.7333H13.5H10.2667V13.6H13.5H13.6V13.5V10.5833C13.6 8.2613 15.3918 6.30584 17.6711 6.1ZM12.5667 10.5833V12.5667H9.3333H9.2333V12.6667V17.6667V17.7667H9.3333H12.5667V25.0667H3.08335C2.43023 25.0667 1.93335 24.5698 1.93335 23.9167V3.08335C1.93335 2.43023 2.43023 1.93335 3.08335 1.93335H23.9167C24.5698 1.93335 25.0667 2.43023 25.0667 3.08335L25.0667 23.9167C25.0667 24.5698 24.5698 25.0667 23.9167 25.0667H17.7667V17.7667H21.8333H21.9333V17.6667V12.6667V12.5667H21.8333H17.7667V10.5833C17.7667 10.481 17.8003 10.4036 17.8519 10.3519C17.9036 10.3003 17.981 10.2667 18.0833 10.2667H22.25H22.35V10.1667V5.16665V5.06665H22.25H17.625V5.06625L17.6161 5.06705C14.7729 5.32167 12.5667 7.73988 12.5667 10.5833ZM23.9167 0.9H3.08335C1.86142 0.9 0.9 1.86142 0.9 3.08335V23.9167C0.9 25.1386 1.86142 26.1 3.08335 26.1H12.6667H17.6667H23.9167C25.1386 26.1 26.1 25.1386 26.1 23.9167V3.08335C26.1 1.86142 25.1386 0.9 23.9167 0.9Z" fill="white" stroke="white" stroke-width="0.2"/>
</svg>
