<svg width="24" height="24" viewBox="0 0 24 24" fill="none" xmlns="http://www.w3.org/2000/svg">
<path d="M17.5034 0H6.49658C2.91431 0 0 2.91431 0 6.49658V17.5036C0 21.0857 2.91431 24 6.49658 24H17.5036C21.0857 24 24 21.0857 24 17.5036V6.49658C24 2.91431 21.0857 0 17.5034 0ZM22.593 17.5036C22.593 20.3099 20.3099 22.593 17.5034 22.593H6.49658C3.69012 22.593 1.40698 20.3099 1.40698 17.5036V6.49658C1.40698 3.69012 3.69012 1.40698 6.49658 1.40698H17.5036C20.3099 1.40698 22.593 3.69012 22.593 6.49658V17.5036Z" fill="white"/>
<path d="M11.9998 5.43774C8.38129 5.43774 5.4375 8.38153 5.4375 12.0001C5.4375 15.6186 8.38129 18.5624 11.9998 18.5624C15.6183 18.5624 18.5621 15.6186 18.5621 12.0001C18.5621 8.38153 15.6183 5.43774 11.9998 5.43774ZM11.9998 17.1554C9.15729 17.1554 6.84448 14.8428 6.84448 12.0001C6.84448 9.15753 9.15729 6.84473 11.9998 6.84473C14.8425 6.84473 17.1552 9.15753 17.1552 12.0001C17.1552 14.8428 14.8425 17.1554 11.9998 17.1554Z" fill="white"/>
<path d="M18.7203 3.10718C17.651 3.10718 16.7812 3.97711 16.7812 5.04626C16.7812 6.1156 17.651 6.98553 18.7203 6.98553C19.7897 6.98553 20.6596 6.1156 20.6596 5.04626C20.6596 3.97693 19.7897 3.10718 18.7203 3.10718ZM18.7203 5.57837C18.427 5.57837 18.1882 5.3396 18.1882 5.04626C18.1882 4.75275 18.427 4.51416 18.7203 4.51416C19.0139 4.51416 19.2526 4.75275 19.2526 5.04626C19.2526 5.3396 19.0139 5.57837 18.7203 5.57837Z" fill="white"/>
</svg>
