<svg width="20" height="20" viewBox="0 0 20 20" fill="none" xmlns="http://www.w3.org/2000/svg">
<g id="Group">
<g id="Group 1">
<path id="Oval" fill-rule="evenodd" clip-rule="evenodd" d="M9.9987 19.1667C15.0613 19.1667 19.1654 15.0627 19.1654 10C19.1654 4.93743 15.0613 0.833374 9.9987 0.833374C4.93609 0.833374 0.832031 4.93743 0.832031 10C0.832031 15.0627 4.93609 19.1667 9.9987 19.1667Z" stroke="#FF5A00" stroke-width="1.5" stroke-linecap="round" stroke-linejoin="round"/>
<path id="Path" d="M14.0739 14.0742C13.9555 13.7762 13.7717 13.5086 13.5362 13.291V13.291C13.1392 12.9221 12.6175 12.7169 12.0756 12.7166H7.92513C7.38294 12.7169 6.86089 12.9221 6.46356 13.291V13.291C6.22853 13.509 6.04485 13.7766 5.92578 14.0742" stroke="#FF5A00" stroke-width="1.5" stroke-linecap="round" stroke-linejoin="round"/>
<path id="Oval_2" fill-rule="evenodd" clip-rule="evenodd" d="M10.0026 10.5094C11.2683 10.5094 12.2943 9.48334 12.2943 8.21769C12.2943 6.95204 11.2683 5.92603 10.0026 5.92603C8.73695 5.92603 7.71094 6.95204 7.71094 8.21769C7.71094 9.48334 8.73695 10.5094 10.0026 10.5094Z" stroke="#FF5A00" stroke-width="1.5" stroke-linecap="round" stroke-linejoin="round"/>
</g>
</g>
</svg>
