<svg width="56" height="20" viewBox="0 0 56 20" fill="none" xmlns="http://www.w3.org/2000/svg">
<g id="vtex/logo-light">
<path id="Shape" d="M40.4773 7.49054H38.4697V14.316C38.4687 14.4447 38.3639 14.5487 38.2344 14.5497H36.6883C36.5587 14.5487 36.4539 14.4447 36.4529 14.316V7.49054H34.4306C34.3694 7.49301 34.3098 7.4707 34.2654 7.42871C34.2211 7.38671 34.1958 7.32863 34.1953 7.26777V6.05898C34.1958 5.99812 34.2211 5.94004 34.2654 5.89804C34.3098 5.85605 34.3694 5.83374 34.4306 5.83621H40.4736C40.604 5.83 40.7149 5.92955 40.7218 6.05898V7.26777C40.7149 7.39572 40.6063 7.4947 40.4773 7.49054Z" fill="white"/>
<path id="Shape_2" d="M46.9161 14.5038C46.1246 14.6163 45.3255 14.6675 44.5261 14.6572C43.002 14.6572 41.6562 14.2701 41.6562 12.1355V8.24077C41.6562 6.10621 43.0149 5.73189 44.5371 5.73189C45.3304 5.7211 46.1233 5.77177 46.9087 5.88345C47.0742 5.90718 47.144 5.96561 47.144 6.11717V7.21275C47.143 7.34142 47.0383 7.44548 46.9087 7.44647H44.4268C43.8753 7.44647 43.6712 7.62907 43.6712 8.24442V9.31078H46.8223C46.9519 9.31178 47.0566 9.41584 47.0576 9.54451V10.6583C47.0566 10.787 46.9519 10.8911 46.8223 10.8921H43.6712V12.1355C43.6712 12.7454 43.8716 12.9335 44.4268 12.9335H46.9161C47.0456 12.9345 47.1504 13.0386 47.1514 13.1672V14.2628C47.1532 14.4089 47.0815 14.4801 46.9161 14.5038Z" fill="white"/>
<path id="Shape_3" d="M55.8233 14.5494H53.9462C53.8153 14.559 53.6924 14.4859 53.6392 14.3668L52.0103 11.8104L50.5396 14.3193C50.4568 14.4599 50.3741 14.553 50.2436 14.553H48.5007C48.4551 14.5612 48.4081 14.5487 48.3726 14.5191C48.3371 14.4895 48.3167 14.4457 48.3169 14.3996C48.3193 14.371 48.3274 14.343 48.3408 14.3175L50.9017 10.0831L48.3169 6.05864C48.3035 6.03702 48.2954 6.01266 48.293 5.98743C48.3017 5.89497 48.3836 5.82665 48.4768 5.83404H50.3778C50.5083 5.83404 50.6021 5.95091 50.6738 6.05681L52.185 8.43057L53.6557 6.05681C53.709 5.93676 53.8209 5.85254 53.9517 5.83404H55.7001C55.7933 5.82665 55.8752 5.89497 55.8839 5.98743C55.8816 6.01266 55.8734 6.03702 55.86 6.05864L53.2862 10.1068L55.9648 14.3065C55.9855 14.3422 55.9975 14.3822 55.9998 14.4234C55.9777 14.5037 55.917 14.5494 55.8233 14.5494Z" fill="white"/>
<path id="Shape_4" d="M31.3669 5.85943C31.2787 5.85748 31.2016 5.91802 31.1831 6.00368L29.4678 12.3069C29.4439 12.4366 29.409 12.4895 29.3023 12.4895C29.1957 12.4895 29.1608 12.442 29.1369 12.3069L27.4271 6.00368C27.4086 5.91802 27.3314 5.85748 27.2433 5.85943H25.5556C25.4989 5.85805 25.4448 5.88269 25.4089 5.92622C25.3729 5.96975 25.3592 6.0273 25.3717 6.0822C25.3717 6.0822 27.4657 13.3075 27.4878 13.3861C27.7672 14.2479 28.4456 14.6642 29.3078 14.6642C30.1351 14.6937 30.8801 14.1705 31.1279 13.3861C31.161 13.2875 33.209 6.0822 33.209 6.0822C33.2209 6.02757 33.2069 5.97056 33.171 5.92748C33.1352 5.88441 33.0814 5.86001 33.0252 5.86126L31.3669 5.85943Z" fill="white"/>
<path id="Shape_5" d="M21.8011 7.47998e-05H4.20342C3.56664 0.00585704 2.97881 0.340463 2.65189 0.88324C2.32497 1.42602 2.30612 2.09868 2.60213 2.65868L4.36337 5.98924H1.17181C0.764065 5.98187 0.382842 6.18937 0.169699 6.53469C-0.0434439 6.88001 -0.0566735 7.31157 0.134923 7.66913L5.79736 18.2962C6.00055 18.6779 6.39958 18.9166 6.83425 18.9166C7.26892 18.9166 7.66794 18.6779 7.87113 18.2962L9.40808 15.4167L11.3385 19.0431C11.6523 19.6318 12.2681 20 12.9388 20C13.6096 20 14.2253 19.6318 14.5392 19.0431L23.3638 2.56373C23.656 2.02131 23.6384 1.36605 23.3177 0.83981C22.9969 0.313569 22.4204 -0.00561433 21.8011 7.47998e-05ZM13.938 6.96248L10.0773 14.1531C9.94463 14.4015 9.68472 14.5568 9.40165 14.5568C9.11858 14.5568 8.85866 14.4015 8.72602 14.1531L4.9149 7.03187C4.79732 6.81271 4.80418 6.54834 4.93299 6.3355C5.06179 6.12266 5.29363 5.99259 5.54365 5.99289H13.3424C13.5774 5.9893 13.7967 6.1094 13.9191 6.30865C14.0415 6.5079 14.0487 6.75658 13.938 6.96248Z" fill="white"/>
</g>
</svg>
