<svg width="42" height="14" viewBox="0 0 42 14" fill="none" xmlns="http://www.w3.org/2000/svg">
<path id="horizontal/negativo" fill-rule="evenodd" clip-rule="evenodd" d="M11.3458 4.19768C11.3458 3.49313 11.968 2.82667 12.8563 2.82667C13.7446 2.82667 14.3667 3.49313 14.3667 4.19768C14.3667 4.90223 13.7446 5.5687 12.8563 5.5687C11.968 5.5687 11.3458 4.90223 11.3458 4.19768ZM12.8563 0.891113C11.0085 0.891113 9.41247 2.31887 9.41247 4.19768C9.41247 4.97695 9.68704 5.67863 10.1403 6.23301C10.2093 6.31745 10.2438 6.35966 10.2526 6.39654C10.2611 6.43254 10.2593 6.45964 10.246 6.49416C10.2323 6.52952 10.1929 6.5663 10.114 6.63987C9.38802 7.31684 8.92913 8.26518 8.92913 9.339C8.92913 11.4716 10.7391 13.1093 12.8563 13.1093C14.9735 13.1093 16.7835 11.4716 16.7835 9.339C16.7835 8.26518 16.3246 7.31684 15.5986 6.63986L15.5986 6.63986C15.5197 6.5663 15.4803 6.52952 15.4666 6.49416C15.4533 6.45964 15.4515 6.43254 15.46 6.39653C15.4688 6.35966 15.5033 6.31745 15.5723 6.23301C16.0256 5.67862 16.3001 4.97695 16.3001 4.19768C16.3001 2.31887 14.7041 0.891113 12.8563 0.891113ZM10.8625 9.339C10.8625 8.37601 11.7035 7.50426 12.8563 7.50426C14.0091 7.50426 14.8501 8.37601 14.8501 9.339C14.8501 10.302 14.0091 11.1737 12.8563 11.1737C11.7035 11.1737 10.8625 10.302 10.8625 9.339ZM1.24303 1.68666C1.49026 1.57866 1.61388 1.52466 1.71358 1.54304C1.80072 1.5591 1.87776 1.60941 1.92743 1.68269C1.98425 1.76653 1.98425 1.90126 1.98425 2.17072L1.98425 5.19836C2.65248 4.77117 3.44688 4.52351 4.29921 4.52351C6.6736 4.52351 8.59842 6.4455 8.59842 8.81638C8.59842 11.1873 6.6736 13.1093 4.29921 13.1093C3.69055 13.1093 3.11142 12.983 2.58669 12.7552C2.27692 12.6207 2.12203 12.5535 2.02087 12.5368C1.91297 12.5191 1.85795 12.5191 1.75009 12.5371C1.64897 12.554 1.5347 12.6039 1.30616 12.7038L1.30614 12.7038L0.741221 12.9506C0.493991 13.0586 0.370376 13.1126 0.270673 13.0942C0.183532 13.0781 0.106492 13.0278 0.0568263 12.9545C5.5193e-07 12.8707 5.45718e-07 12.736 5.33065e-07 12.4665L3.42357e-07 8.81812L0 8.81638L3.42176e-07 8.81465L0 2.57524C0 2.45021 0 2.38769 0.0197693 2.3332C0.0372429 2.28503 0.0657015 2.24158 0.102894 2.20628C0.144973 2.16636 0.202331 2.1413 0.317047 2.09118L1.24303 1.68666L1.24303 1.68666ZM1.98425 8.81638L1.98425 8.81517C1.98491 7.5391 3.0211 6.50484 4.29921 6.50484C5.57773 6.50484 6.61417 7.53975 6.61417 8.81638C6.61417 10.093 5.57773 11.1279 4.29921 11.1279C3.0211 11.1279 1.98491 10.0937 1.98425 8.8176L1.98425 8.81638ZM21.4134 6.50487C20.1349 6.50487 19.0984 7.53979 19.0984 8.81642C19.0984 10.0931 20.1349 11.128 21.4134 11.128C22.6919 11.128 23.7283 10.0931 23.7283 8.81642C23.7283 7.53979 22.6919 6.50487 21.4134 6.50487ZM17.1142 8.81642C17.1142 6.44553 19.039 4.52355 21.4134 4.52355C23.7878 4.52355 25.7126 6.44553 25.7126 8.81642C25.7126 11.1873 23.7878 13.1093 21.4134 13.1093C19.039 13.1093 17.1142 11.1873 17.1142 8.81642ZM28.0389 8.51898C28.0389 7.21334 28.8366 6.50487 29.6634 6.50487C30.5084 6.50487 31.3219 7.2204 31.3233 8.51571L31.3233 9.78644V9.869V12.2507C31.3233 12.4357 31.3233 12.5281 31.3594 12.5988C31.3911 12.6609 31.4417 12.7114 31.5039 12.7431C31.5746 12.7791 31.6672 12.7791 31.8524 12.7791H32.7898C32.975 12.7791 33.0676 12.7791 33.1383 12.7431C33.2006 12.7114 33.2511 12.6609 33.2829 12.5988C33.3189 12.5281 33.3189 12.4357 33.3189 12.2507V8.51898V8.46556L33.3186 8.46576C33.2944 6.34046 31.8235 4.52355 29.6634 4.52355C27.4663 4.52355 26.0433 6.40586 26.0433 8.51898V12.2507C26.0433 12.4357 26.0433 12.5281 26.0794 12.5988C26.1111 12.6609 26.1616 12.7114 26.2239 12.7431C26.2946 12.7791 26.3872 12.7791 26.5724 12.7791H27.5098C27.695 12.7791 27.7876 12.7791 27.8583 12.7431C27.9206 12.7114 27.9711 12.6609 28.0029 12.5988C28.0389 12.5281 28.0389 12.4357 28.0389 12.2507V8.51898ZM34.8418 5.75224C35.6417 4.92978 36.6769 4.52355 37.9247 4.52355C39.118 4.52355 40.104 4.9503 40.8608 5.80574C41.6209 6.643 42 7.65643 42 8.8318C42 9.03966 41.9836 9.25188 41.9512 9.46832C41.933 9.58959 41.8287 9.67933 41.7059 9.67933H35.5811C35.7278 10.17 35.9869 10.5512 36.3539 10.8345C36.8062 11.176 37.3659 11.3527 38.0477 11.3527C38.9915 11.3527 39.6414 11.0108 40.0498 10.3478C40.1198 10.2341 40.2675 10.1963 40.3837 10.2623L41.5211 10.9083C41.6448 10.9786 41.6841 11.1383 41.6069 11.2578C40.8085 12.4945 39.5984 13.1093 38.0169 13.1093C36.7414 13.1093 35.6817 12.7102 34.8607 11.8995L34.8595 11.8984L34.8583 11.8972C34.0503 11.0777 33.6496 10.0444 33.6496 8.81642C33.6496 7.59901 34.0449 6.57146 34.8418 5.75224ZM37.9247 6.28012C37.2579 6.28012 36.7243 6.4693 36.3047 6.83441L36.3035 6.83543L36.3023 6.83643C35.9478 7.1372 35.7033 7.52669 35.5724 8.01504H40.0982C39.969 7.47809 39.726 7.07666 39.3809 6.79269C38.9656 6.45097 38.4838 6.28012 37.9247 6.28012Z" fill="white"/>
</svg>
