<svg xmlns="http://www.w3.org/2000/svg" width="48" height="35" viewBox="0 0 48 35" fill="none">
  <path d="M0 2.5C0 1.39543 0.895431 0.5 2 0.5H46C47.1046 0.5 48 1.39543 48 2.5V32.5C48 33.6046 47.1046 34.5 46 34.5H2C0.895431 34.5 0 33.6046 0 32.5V2.5Z" fill="#393939"/>
  <path fill-rule="evenodd" clip-rule="evenodd" d="M23.5002 24.4779C21.8584 25.8618 19.7288 26.6972 17.4016 26.6972C12.2093 26.6972 8 22.538 8 17.4074C8 12.2768 12.2093 8.11768 17.4016 8.11768C19.7288 8.11768 21.8585 8.95315 23.5003 10.3371C25.142 8.9532 27.2717 8.11776 29.5988 8.11776C34.7912 8.11776 39.0004 12.2769 39.0004 17.4075C39.0004 22.5381 34.7912 26.6973 29.5988 26.6973C27.2716 26.6973 25.1419 25.8618 23.5002 24.4779Z" fill="white"/>
  <path fill-rule="evenodd" clip-rule="evenodd" d="M23.5 24.4784C25.5217 22.7745 26.8037 20.2389 26.8037 17.4074C26.8037 14.576 25.5217 12.0404 23.5 10.3365C25.1417 8.9529 27.2711 8.11768 29.5979 8.11768C34.7903 8.11768 38.9995 12.2768 38.9995 17.4074C38.9995 22.538 34.7903 26.6972 29.5979 26.6972C27.2711 26.6972 25.1417 25.862 23.5 24.4784Z" fill="white"/>
  <path fill-rule="evenodd" clip-rule="evenodd" d="M23.4984 24.4774C25.5197 22.7735 26.8014 20.2382 26.8014 17.4071C26.8014 14.5759 25.5197 12.0406 23.4984 10.3367C21.477 12.0406 20.1953 14.5759 20.1953 17.4071C20.1953 20.2382 21.477 22.7735 23.4984 24.4774Z" fill="#393939"/>
</svg>