<svg width="17" height="16" viewBox="0 0 17 16" fill="none" xmlns="http://www.w3.org/2000/svg">
<path d="M6.4967 15C6.86487 15 7.16333 14.7015 7.16333 14.3334C7.16333 13.9652 6.86487 13.6667 6.4967 13.6667C6.12854 13.6667 5.83008 13.9652 5.83008 14.3334C5.83008 14.7015 6.12854 15 6.4967 15Z" fill="#1E1E1E" stroke="#1E1E1E" stroke-width="1.00893" stroke-linecap="round" stroke-linejoin="round"/>
<path d="M13.828 15C14.1962 15 14.4946 14.7015 14.4946 14.3334C14.4946 13.9652 14.1962 13.6667 13.828 13.6667C13.4598 13.6667 13.1614 13.9652 13.1614 14.3334C13.1614 14.7015 13.4598 15 13.828 15Z" fill="#1E1E1E" stroke="#1E1E1E" stroke-width="1.00893" stroke-linecap="round" stroke-linejoin="round"/>
<path d="M1.1626 1H3.82909L5.61565 9.9261C5.67661 10.233 5.84357 10.5087 6.08731 10.7049C6.33106 10.9011 6.63605 11.0054 6.9489 10.9994H13.4285C13.7413 11.0054 14.0463 10.9011 14.2901 10.7049C14.5338 10.5087 14.7008 10.233 14.7617 9.9261L15.8283 4.33312H4.49572" stroke="#1E1E1E" stroke-width="1.3" stroke-linecap="round" stroke-linejoin="round"/>
</svg>
