<svg width="48" height="28" viewBox="0 0 48 28" fill="none" xmlns="http://www.w3.org/2000/svg">
<path d="M0 2C0 0.895431 0.895431 0 2 0H46C47.1046 0 48 0.895431 48 2V28H0V2Z" fill="white"/>
<path d="M18.4883 14.8812C18.5388 14.8812 18.5864 14.8812 18.634 14.8812C23.2136 14.8812 27.7936 14.8812 32.3732 14.8812C33.1838 14.8812 33.9259 14.6633 34.5728 14.1643C35.3454 13.5682 35.7868 12.7761 35.9012 11.8022C36.1142 9.9865 34.8438 8.28356 33.0289 7.95038C32.8113 7.91041 32.5866 7.89527 32.3653 7.89527C25.6642 7.89232 18.9631 7.89316 12.2625 7.89274C12.2249 7.89274 12.1873 7.89274 12.1393 7.89274V21.1477H11V6.84313C11.0459 6.84313 11.0869 6.84313 11.1278 6.84313C18.1868 6.84313 25.2462 6.84355 32.3051 6.84229C33.3692 6.84229 34.3469 7.11699 35.2022 7.76696C36.1706 8.50274 36.7607 9.47999 36.9411 10.6882C37.1537 12.1135 36.792 13.3848 35.8353 14.4635C35.1358 15.2522 34.2462 15.7091 33.2097 15.8652C32.9153 15.9094 32.6146 15.9274 32.3168 15.9279C28.1094 15.9317 23.9014 15.9304 19.694 15.9304H19.5553V17.354H36.559V18.3952H18.4883V14.8816V14.8812Z" fill="#FF5A00"/>
<path d="M14.9449 16.9851V21.1507H13.8086V9.61255H33.4596V13.127C33.4082 13.127 33.361 13.127 33.3142 13.127C28.7451 13.127 24.1759 13.1282 19.6072 13.1257C18.9027 13.1257 18.2408 13.2776 17.6427 13.6591C16.7553 14.2262 16.2337 15.0407 16.0721 16.0852C15.796 17.8736 16.9812 19.5908 18.7139 20.017C19.0163 20.0914 19.3228 20.1171 19.6335 20.1171C25.225 20.1158 30.816 20.1163 36.4075 20.1163C36.4555 20.1163 36.5032 20.1163 36.5583 20.1163V21.157H36.4484C30.8152 21.157 25.1824 21.1587 19.5492 21.1558C18.3222 21.1549 17.2318 20.7725 16.3327 19.9118C15.5693 19.1811 15.1324 18.2774 14.9888 17.2287C14.9775 17.1458 14.9696 17.0625 14.96 16.9796C14.955 16.9813 14.9499 16.983 14.9449 16.9843V16.9851ZM14.9529 10.6584V16.2565C14.9808 16.068 14.998 15.8934 15.0335 15.723C15.3129 14.3688 16.0366 13.3335 17.2372 12.652C17.9622 12.2406 18.7507 12.0769 19.5792 12.0774C23.7972 12.0795 28.0151 12.0786 32.233 12.0786H32.3867V10.6584H14.9529Z" fill="#FF5A00"/>
</svg>
