<svg width="157" height="26" viewBox="0 0 157 26" fill="none" xmlns="http://www.w3.org/2000/svg">
<g clip-path="url(#clip0_2445_847)">
<path d="M0 0.0959473H37.654C42.0576 0.0959473 44.9927 3.85422 44.9927 8.13369C44.9927 12.4132 42.02 16.1305 37.654 16.1305H13.7998V18.5298H45.0302V20.41H11.9637V14.2912H37.6164C40.9191 14.2912 43.2672 11.4526 43.2672 8.13369C43.2672 4.81478 40.8085 1.93524 37.6164 1.93524H1.83418V25.1697H0V0.0959473ZM13.7247 23.3305H45.0283V25.1697H13.6891C9.54246 25.1697 7.08372 22.2514 6.34846 18.8507V25.1697H4.51429V4.97416H39.3063V11.1726H13.6891C10.6058 11.1726 8.11149 13.7722 8.11149 17.2914C8.11149 20.8106 10.4596 23.3305 13.7267 23.3305H13.7247ZM6.34846 6.8156V15.6933C7.59563 9.33332 13.4678 9.33332 13.4678 9.33332H37.4682V6.81345H6.34846V6.8156ZM69.3983 24.6119C68.2974 22.0921 68.2243 19.4537 67.491 16.4127C67.0878 14.7327 67.0878 13.9337 65.9493 12.9731C65.8762 12.8934 65.9869 12.7341 66.1331 12.6135C67.7835 11.3341 68.9595 9.29455 68.9595 7.05467C68.9595 2.41552 65.5106 0.175635 62.5004 0.175635H49.1413C48.2242 0.175635 48.2242 1.17497 48.2242 1.17497V24.1704C48.2242 24.1704 48.2242 25.1697 49.1789 25.1697H51.2344C52.1515 25.1697 52.1515 24.1704 52.1515 24.1704V14.8921C52.1515 14.8921 52.1515 13.8928 53.0686 13.8928H59.8954C61.0694 13.8928 62.0972 14.2137 62.5755 14.933C64.5203 17.9332 63.8602 20.9721 64.8504 24.1704C64.9967 24.6895 65.5106 25.1697 66.3921 25.1697H69.0346C69.2916 25.1697 69.4754 24.7691 69.4003 24.6098L69.3983 24.6119ZM61.2137 10.6148H53.0291C52.9559 10.6148 52.1475 10.4942 52.1475 9.61331V4.45511C52.1475 3.45578 53.0646 3.45578 53.0646 3.45578H61.2117C64.7713 3.45578 64.7713 7.05467 64.7713 7.05467C64.7713 10.6148 61.2117 10.6148 61.2117 10.6148H61.2137ZM80.1879 6.69499C87.5642 6.69499 90.6475 12.0535 90.6475 16.2533C90.685 20.6512 87.6017 25.8094 80.261 25.8094C72.9204 25.8094 69.7659 20.7309 69.7659 16.2533C69.7659 12.0535 72.8492 6.69499 80.1879 6.69499ZM80.261 22.3699C84.3721 22.3699 86.3901 18.9304 86.3901 16.2511C86.3901 13.5719 84.3346 10.1324 80.1879 10.1324C76.0413 10.1324 74.0213 13.6516 74.0213 16.292C74.0213 18.9325 75.9661 22.3699 80.261 22.3699ZM92.116 1.17497C92.116 1.17497 92.116 0.175635 93.0351 0.175635H95.5669C96.484 0.175635 96.484 1.17497 96.484 1.17497V24.1704C96.484 25.1697 95.5669 25.1697 95.5669 25.1697H93.0351C92.116 25.1697 92.116 24.1704 92.116 24.1704V1.17497ZM115.567 13.8131V24.1704C115.567 24.1704 115.567 25.1697 114.65 25.1697H113.146C112.411 25.1697 112.08 24.9694 111.824 24.1704C111.75 23.8495 111.42 23.6104 111.126 23.8904C108.705 26.1691 103.42 26.6903 100.593 24.5301C98.9408 23.2508 98.2075 21.5708 98.2075 19.8909C98.2075 17.3323 99.9686 14.8512 102.319 14.4528C103.933 14.1728 104.961 13.8928 110.869 13.6128C111.274 13.5719 111.97 12.7728 111.456 11.9716C110.649 10.7332 110.023 10.1324 107.529 10.1324C105.327 10.1324 104.115 10.6126 103.382 11.9716C103.271 12.2129 102.757 12.6931 102.281 12.6931L99.4547 12.6522C99.1246 12.6522 98.7214 12.2516 98.8677 11.892C100.152 8.41368 102.906 6.69284 107.052 6.69284C110.76 6.69284 115.567 8.17246 115.567 13.8109V13.8131ZM103.163 21.4115C105.473 23.0914 111.529 22.4108 111.529 17.6123C111.529 17.2526 111.199 17.0523 110.942 17.0114C110.466 16.9705 105.362 16.852 103.271 18.0516C102.574 18.4501 102.317 19.0919 102.354 19.8909C102.354 20.4509 102.649 21.0496 103.163 21.4093V21.4115ZM135.713 24.1704C135.713 24.1704 135.713 25.1697 134.796 25.1697H132.63C131.713 25.1697 131.713 24.1704 131.713 24.1704V14.0134C131.713 12.6135 131.199 10.2142 127.969 10.2142C123.455 10.2142 122.097 13.9746 122.097 16.1736V24.1726C122.097 24.1726 122.097 25.1719 121.178 25.1719H119.014C118.095 25.1719 118.059 24.1726 118.059 24.1726L118.095 7.81709C118.095 7.81709 118.095 6.81776 119.014 6.81776H121.178C121.178 6.81776 122.097 6.81776 122.097 7.81709V8.85734C122.097 9.29671 122.538 9.13733 122.682 9.01672C124.445 7.45742 126.683 6.69715 129.363 6.69715C132.043 6.69715 135.711 9.497 135.711 14.0155V24.1726L135.713 24.1704ZM156.083 0.175635C157 0.175635 157 1.17497 157 1.17497V24.1704C157 24.1704 157 25.1697 156.083 25.1697H153.919C153 25.1697 153 24.1704 153 24.0907C153 23.5717 152.707 23.3714 152.45 23.6104C146.432 28.7686 137.587 24.3707 137.549 16.2124C137.549 8.93488 146.54 3.97483 152.45 8.89396C152.707 9.13302 152.964 8.97365 152.964 8.41368V1.17497C152.964 1.17497 153 0.175635 153.919 0.175635H156.083ZM147.203 22.4517C150.359 22.4517 152.891 20.0115 152.891 16.2533C152.891 12.495 150.359 10.2939 147.203 10.2939C144.268 10.2939 141.661 12.7341 141.661 16.2124C141.661 19.6906 144.084 22.4517 147.203 22.4517Z" fill="#FF5A00"/>
</g>
<defs>
<clipPath id="clip0_2445_847">
<rect width="157" height="25.8082" fill="white" transform="translate(0 0.0959473)"/>
</clipPath>
</defs>
</svg>
