<svg xmlns="http://www.w3.org/2000/svg" width="48" height="35" viewBox="0 0 48 35" fill="none">
  <path d="M0 2.5C0 1.39543 0.895431 0.5 2 0.5H46C47.1046 0.5 48 1.39543 48 2.5V32.5C48 33.6046 47.1046 34.5 46 34.5H2C0.895431 34.5 0 33.6046 0 32.5V2.5Z" fill="#393939"/>
  <path fill-rule="evenodd" clip-rule="evenodd" d="M16.5504 22.3444H13.9367L11.9768 14.6474C11.8838 14.2933 11.6863 13.9803 11.3957 13.8328C10.6706 13.462 9.87164 13.167 9 13.0182V12.7218H13.2104C13.7915 12.7218 14.2273 13.167 14.2999 13.6839L15.3168 19.2361L17.9292 12.7218H20.4702L16.5504 22.3444ZM21.9233 22.3444H19.4549L21.4875 12.7218H23.9558L21.9233 22.3444ZM27.1487 15.3877C27.2213 14.8694 27.6571 14.5731 28.1656 14.5731C28.9646 14.4987 29.835 14.6475 30.5613 15.0169L30.9972 12.9451C30.2708 12.6488 29.4718 12.5 28.7467 12.5C26.351 12.5 24.6077 13.8329 24.6077 15.6827C24.6077 17.09 25.8425 17.8289 26.7141 18.2741C27.6571 18.718 28.0203 19.0143 27.9477 19.4582C27.9477 20.124 27.2213 20.4203 26.4962 20.4203C25.6246 20.4203 24.753 20.1984 23.9552 19.8276L23.5194 21.9007C24.3911 22.2702 25.3341 22.419 26.2057 22.419C28.892 22.4921 30.5613 21.1605 30.5613 19.1618C30.5613 16.6449 27.1487 16.4974 27.1487 15.3877ZM39.1998 22.3444L37.2399 12.7218H35.1347C34.6989 12.7218 34.2631 13.0182 34.1178 13.462L30.4885 22.3444H33.0295L33.5367 20.9384H36.6588L36.9494 22.3444H39.1998ZM35.4987 15.3129L36.2237 18.9395H34.1912L35.4987 15.3129Z" fill="white"/>
</svg>