<svg width="30" height="23" viewBox="0 0 30 23" fill="none" xmlns="http://www.w3.org/2000/svg">
<path d="M24.0343 0H5.96571C2.67612 0 0 2.68469 0 5.98408V16.0561C0 19.3561 2.67612 22.0402 5.96571 22.0402H24.0343C27.3239 22.0402 30 19.3555 30 16.0561V5.98408C30 2.68469 27.3239 0 24.0343 0ZM28.7755 16.0567C28.7755 18.6814 26.6486 20.8163 24.0343 20.8163H5.96571C3.35143 20.8163 1.22449 18.6808 1.22449 16.0567V5.98408C1.22449 3.36 3.35143 1.22449 5.96571 1.22449H24.0343C26.6486 1.22449 28.7755 3.36 28.7755 5.98408V16.0567Z" fill="white"/>
<path d="M20.4236 10.7987L11.941 5.83032C11.7524 5.72011 11.5179 5.71828 11.3275 5.82726C11.1371 5.93623 11.0195 6.13889 11.0195 6.35868V16.2948C11.0195 16.514 11.1371 16.7173 11.3269 16.8262C11.4212 16.8801 11.5265 16.9071 11.6318 16.9071C11.7389 16.9071 11.8454 16.8789 11.941 16.8232L20.4236 11.856C20.611 11.7464 20.7267 11.545 20.7267 11.3277C20.7267 11.1103 20.6116 10.9083 20.4236 10.7987ZM12.244 15.2264V7.42644L18.9028 11.3271L12.244 15.2264Z" fill="white"/>
</svg>
